<?xml version="1.0" encoding="utf-8"?>
<!-- Generator: Adobe Illustrator 16.0.3, SVG Export Plug-In . SVG Version: 6.00 Build 0)  -->
<!DOCTYPE svg PUBLIC "-//W3C//DTD SVG 1.1//EN" "http://www.w3.org/Graphics/SVG/1.1/DTD/svg11.dtd">
<svg version="1.1" id="Layer_1" xmlns="http://www.w3.org/2000/svg" xmlns:xlink="http://www.w3.org/1999/xlink" x="0px" y="0px"
	 width="100px" height="40px" viewBox="0 0 100 40" enable-background="new 0 0 100 40" xml:space="preserve">
<g>
	<path fill="#ffffff" d="M34.526,28.948c-0.14,0.118-0.287,0.192-0.442,0.226c-0.156,0.031-0.303,0.049-0.442,0.049h-2.43
		c-0.193,0-0.359-0.035-0.499-0.104c-0.139-0.069-0.258-0.163-0.354-0.28c-0.096-0.117-0.177-0.252-0.241-0.4
		c-0.064-0.15-0.118-0.307-0.161-0.467l-0.499-2.053c-0.161,0.332-0.394,0.709-0.7,1.131c-0.306,0.422-0.695,0.817-1.167,1.188
		c-0.472,0.369-1.035,0.68-1.689,0.932c-0.654,0.25-1.405,0.377-2.252,0.377c-1.223,0-2.333-0.236-3.331-0.709
		c-0.998-0.472-1.848-1.115-2.551-1.932c-0.703-0.814-1.247-1.768-1.633-2.855c-0.386-1.088-0.58-2.25-0.58-3.482v-10.54
		c0-0.407,0.088-0.716,0.266-0.925c0.177-0.209,0.458-0.314,0.845-0.314h3.717c0.461,0,0.777,0.078,0.949,0.234
		c0.171,0.155,0.257,0.459,0.257,0.91v10.487c0,0.463,0.105,0.899,0.314,1.313c0.209,0.412,0.485,0.777,0.828,1.096
		c0.344,0.316,0.733,0.566,1.167,0.749c0.435,0.183,0.877,0.272,1.327,0.272c0.387,0,0.786-0.09,1.199-0.272
		c0.413-0.183,0.794-0.427,1.143-0.733c0.348-0.306,0.635-0.664,0.86-1.078c0.226-0.414,0.338-0.853,0.338-1.313V9.976
		c0-0.183,0.035-0.365,0.105-0.548c0.069-0.182,0.174-0.322,0.314-0.418c0.139-0.086,0.271-0.145,0.394-0.177
		c0.123-0.032,0.265-0.048,0.426-0.048h3.637c0.461,0,0.794,0.113,0.998,0.338c0.204,0.225,0.306,0.526,0.306,0.901v18.007
		c0,0.203-0.046,0.393-0.137,0.563c-0.091,0.172-0.217,0.308-0.378,0.402L34.526,28.948z"/>
	<path fill="#ffffff" d="M39.353,5.598c0-0.332,0.11-0.582,0.33-0.748c0.22-0.167,0.534-0.325,0.941-0.476l3.653-1.271
		c0.053-0.01,0.104-0.016,0.153-0.016c0.049,0,0.093,0,0.136,0c0.397,0,0.663,0.116,0.797,0.346c0.134,0.23,0.201,0.534,0.201,0.909
		L45.547,9.41h2.688c0.344,0,0.621,0.103,0.837,0.306c0.215,0.203,0.321,0.509,0.321,0.917v3.106c0,0.45-0.106,0.78-0.321,0.989
		c-0.216,0.209-0.493,0.314-0.837,0.314h-2.688l0.017,12.939c0,0.407-0.118,0.716-0.354,0.925c-0.236,0.209-0.563,0.314-0.981,0.314
		h-3.637c-0.826,0-1.239-0.414-1.239-1.239l-0.017-12.938h-1.174c-0.826,0-1.239-0.435-1.239-1.303v-3.106
		c0-0.815,0.413-1.223,1.239-1.223h1.174L39.353,5.598z"/>
	<path fill="#ffffff" d="M52.461,5.598c0-0.332,0.109-0.582,0.329-0.748c0.221-0.167,0.534-0.325,0.941-0.476l3.652-1.271
		c0.055-0.01,0.104-0.016,0.152-0.016s0.094,0,0.137,0c0.397,0,0.663,0.116,0.797,0.346c0.135,0.23,0.201,0.534,0.201,0.909
		L58.654,9.41h2.688c0.344,0,0.621,0.103,0.836,0.306c0.215,0.204,0.321,0.509,0.321,0.917v3.106c0,0.45-0.106,0.78-0.321,0.989
		s-0.492,0.314-0.836,0.314h-2.688l0.018,12.939c0,0.407-0.118,0.716-0.354,0.925c-0.235,0.209-0.563,0.314-0.98,0.314h-3.636
		c-0.827,0-1.239-0.414-1.239-1.239l-0.017-12.938h-1.177c-0.824,0-1.237-0.435-1.237-1.303v-3.106c0-0.815,0.413-1.223,1.237-1.223
		h1.176L52.461,5.598z"/>
	<path fill="#ffffff" d="M64.123,3.941c0-0.343,0.086-0.633,0.257-0.869c0.172-0.235,0.467-0.354,0.885-0.354h3.943
		c0.107,0,0.219,0.029,0.338,0.088c0.118,0.06,0.227,0.143,0.33,0.25c0.102,0.107,0.188,0.236,0.258,0.386
		c0.068,0.15,0.104,0.316,0.104,0.499v24.04c0,0.407-0.115,0.716-0.346,0.925c-0.231,0.209-0.529,0.314-0.894,0.314h-3.733
		c-0.418,0-0.713-0.105-0.886-0.314c-0.171-0.209-0.257-0.518-0.257-0.925L64.123,3.941L64.123,3.941z"/>
	<path fill="#ffffff" d="M71.519,10.329c-0.172-0.429-0.174-0.796-0.008-1.102c0.166-0.306,0.532-0.458,1.102-0.458h3.975
		c0.268,0,0.488,0.083,0.66,0.249c0.171,0.167,0.3,0.373,0.387,0.62l4.553,12.952l4.457-12.952c0.119-0.343,0.269-0.574,0.451-0.692
		s0.435-0.177,0.756-0.177h4.136c0.301,0,0.536,0.04,0.709,0.12c0.172,0.081,0.292,0.188,0.36,0.322
		c0.07,0.135,0.094,0.285,0.072,0.451c-0.021,0.167-0.064,0.33-0.129,0.491c-0.406,1.008-0.852,2.111-1.335,3.307
		c-0.483,1.196-0.983,2.44-1.505,3.733c-0.52,1.293-1.049,2.605-1.585,3.941s-1.06,2.646-1.568,3.935
		c-0.51,1.287-1.001,2.524-1.473,3.709c-0.472,1.187-0.903,2.274-1.296,3.269c-0.391,0.99-0.731,1.862-1.021,2.613
		c-0.289,0.751-0.509,1.33-0.658,1.736l0.047-0.079c-0.073,0.289-0.209,0.522-0.401,0.7c-0.192,0.176-0.431,0.264-0.709,0.264
		h-3.716c-0.482,0-0.813-0.094-0.99-0.281c-0.177-0.188-0.266-0.465-0.266-0.828c0-0.14,0.019-0.246,0.057-0.322
		c0.037-0.074,0.066-0.123,0.088-0.145l2.527-6.564L71.519,10.329z"/>
	<g>
		<g>
			<g>
				<path fill="#ffffff" d="M14.557,24.752c-0.238-0.67-0.409-1.363-0.519-2.08c-0.456,0.435-0.958,0.758-1.51,0.961
					c-0.587,0.215-1.183,0.307-1.786,0.272s-1.202-0.19-1.798-0.466C8.348,23.162,7.8,22.773,7.3,22.272
					c-0.485-0.485-0.869-1.028-1.149-1.628c-0.28-0.6-0.445-1.207-0.495-1.826c-0.049-0.618,0.03-1.224,0.239-1.82
					c0.209-0.595,0.552-1.132,1.03-1.61c0.432-0.432,0.91-0.77,1.434-1.012c0.524-0.242,1.062-0.421,1.616-0.535
					c0.205-0.038,0.374-0.089,0.506-0.154c0.132-0.064,0.233-0.13,0.301-0.199c0.303-0.304,0.376-0.748,0.217-1.332l-0.706-2.731
					c-0.053-0.235-0.148-0.42-0.285-0.557C9.811,8.671,9.596,8.555,9.366,8.521C9.135,8.487,8.886,8.504,8.62,8.572h0.068
					C7.642,8.754,6.657,9.086,5.736,9.568c-0.922,0.481-1.796,1.136-2.623,1.962c-0.683,0.683-1.253,1.428-1.712,2.236
					c-0.459,0.808-0.802,1.644-1.03,2.509c-0.228,0.864-0.343,1.75-0.347,2.656c-0.003,0.906,0.11,1.793,0.341,2.662
					c0.232,0.869,0.58,1.715,1.047,2.537c0.466,0.822,1.048,1.584,1.747,2.281c0.698,0.698,1.457,1.277,2.275,1.74
					c0.819,0.464,1.665,0.813,2.537,1.047c0.873,0.236,1.762,0.352,2.668,0.348c0.906-0.004,1.794-0.117,2.663-0.342
					c0.869-0.223,1.707-0.564,2.514-1.023c0.169-0.096,0.334-0.2,0.498-0.307C15.566,26.977,14.976,25.936,14.557,24.752z"/>
			</g>
		</g>
	</g>
</g>
</svg>
