<svg version="1.1" id="Warstwa_1" xmlns="http://www.w3.org/2000/svg" xmlns:xlink="http://www.w3.org/1999/xlink" x="0px" y="0px"
	 viewBox="0 0 256 256" style="enable-background:new 0 0 256 256;" xml:space="preserve">
<style type="text/css">
	.st0{fill:#FFFFFF;}
</style>
<g>
	<path class="st0" d="M156.4,169.1c-1.3-3.7-2.3-7.5-3.1-11.3c-0.3-1.4-1.9-2.1-3-1.2c-2.5,2-5.3,3.6-8.2,4.6
		c-4.1,1.5-8.3,2.2-12.6,1.9c-4.3-0.2-8.5-1.3-12.7-3.3c-4.2-2-8.1-4.7-11.6-8.2c-3.4-3.4-6.1-7.2-8.1-11.5c-2-4.2-3.1-8.5-3.5-12.9
		c-0.3-4.4,0.2-8.6,1.7-12.8c1.5-4.2,3.9-8,7.3-11.4c3-3,6.4-5.4,10.1-7.1c3.7-1.7,7.5-3,11.4-3.8c1.4-0.3,2.6-0.6,3.6-1.1
		c0.9-0.5,1.6-0.9,2.1-1.4c2.1-2.1,2.6-5.3,1.5-9.4l-5-19.3c-0.4-1.7-1-3-2-3.9c-1.4-1.4-2.9-2.2-4.5-2.4c-1.6-0.2-3.4-0.1-5.3,0.4
		l0.5,0c-7.4,1.3-14.3,3.6-20.8,7c-6.5,3.4-12.7,8-18.5,13.8c-4.8,4.8-8.8,10.1-12.1,15.8c-3.2,5.7-5.7,11.6-7.3,17.7
		c-1.6,6.1-2.4,12.3-2.4,18.7c0,6.4,0.8,12.7,2.4,18.8c1.6,6.1,4.1,12.1,7.4,17.9c3.3,5.8,7.4,11.2,12.3,16.1
		c4.9,4.9,10.3,9,16.1,12.3c5.8,3.3,11.7,5.7,17.9,7.4c6.2,1.7,12.4,2.5,18.8,2.4c6.4,0,12.7-0.8,18.8-2.4c6.1-1.6,12-4,17.7-7.2
		c0.5-0.3,1.1-0.6,1.6-1c1-0.6,1.2-2,0.5-2.9C162.8,183.5,159.1,176.7,156.4,169.1z"/>
	<path class="st0" d="M237.9,122.9C235,66.9,189.5,21.3,133.4,18.5C68,15.2,14.2,68.9,17.5,134.4c2.8,56,48.4,101.6,104.4,104.4
		C187.4,242.2,241.2,188.4,237.9,122.9z M224.9,135c-3.1,48.5-42.4,87.8-90.9,90.9c-58.8,3.7-107.2-44.7-103.5-103.5
		c3.1-48.5,42.4-87.8,90.9-90.9C180.1,27.8,228.6,76.2,224.9,135z"/>
</g>
</svg>
