<?xml version="1.0" encoding="utf-8"?>
<!-- Generator: Adobe Illustrator 27.0.0, SVG Export Plug-In . SVG Version: 6.00 Build 0)  -->
<svg version="1.1" id="Warstwa_1" xmlns="http://www.w3.org/2000/svg" xmlns:xlink="http://www.w3.org/1999/xlink" x="0px" y="0px"
	 viewBox="0 0 320 320" style="enable-background:new 0 0 320 320;" xml:space="preserve">
<style type="text/css">
	.st0{fill:#FFFFFF;}
	.st1{fill:#0ABF50;}
	.st2{fill:#2F3A4C;}
</style>
<g>
	<g>
		<path class="st0" d="M287.1,33.5c-25.3-25.3-63-28.6-84.2-7.3l-70.1,70.1c-2.3,2.3-2.6,5.7-1,8.3c5.5-1.4,11.3-2.2,17.3-2.2
			c38.2,0,69.1,30.9,69.1,69.1c0,6-0.8,11.8-2.2,17.3c2.6,1.6,6.1,1.3,8.3-1l70.1-70.1C315.6,96.5,312.4,58.8,287.1,33.5z"/>
		<path class="st0" d="M34.6,284.9c25.3,25.3,63,28.6,84.2,7.3l70.1-70.1c2.3-2.3,2.6-5.7,1-8.3c-5.5,1.4-11.3,2.2-17.3,2.2
			c-38.2,0-69.1-30.9-69.1-69.1c0-6,0.8-11.8,2.2-17.3c-2.6-1.6-6.1-1.3-8.3,1l-70.1,70.1C6,221.9,9.3,259.6,34.6,284.9z"/>
		<g>
			<g>
				<path class="st1" d="M213.9,116l-97.4,97.4c-2.3,2.3-6,2.3-8.3,0l-1.7-1.7c-2.3-2.3-2.3-6,0-8.3l97.4-97.4c2.3-2.3,6-2.3,8.3,0
					l1.7,1.7C216.2,110.1,216.2,113.8,213.9,116z"/>
			</g>
			<g>
				<path class="st2" d="M181.8,213.2l-72.4,72.4c-0.1,0.1-0.3,0.3-0.4,0.4c-21.8,19.3-49.4,10.1-67.2-7.7
					c-18-17.9-27.2-45.8-7.3-67.7l0,0c0.5-0.5,1-0.9,1.6-1.5l5.6-5.6l20.1-20.1l45.1-45.1c2.8-2.8,2.8-7.2,0-10l0,0
					c-2.8-2.8-7.2-2.8-10,0c-36.9,36.9-70.1,70.1-72.7,72.7c-0.1,0.1-0.2,0.2-0.3,0.4c-50,55.5,39.8,145,95.1,94.8l72.9-72.9
					c2.8-2.8,2.8-7.2,0-10h0C189,210.5,184.5,210.5,181.8,213.2z"/>
				<path class="st2" d="M201.4,23.7l-72.7,72.7c-2.8,2.8-2.8,7.2,0,10v0c2.8,2.8,7.2,2.8,10,0l72.7-72.7
					c16.5-16.5,46.7-13.1,67.4,7.6c10.3,10.3,16.7,23.3,17.8,36.5c1.1,12.3-2.6,23.3-10.2,30.9l-72.7,72.7c-2.8,2.8-2.8,7.2,0,10
					l0,0c2.8,2.8,7.2,2.8,10,0l72.7-72.7c22-22,18.6-61.1-7.6-87.4C262.5,5,223.4,1.6,201.4,23.7z"/>
			</g>
		</g>
	</g>
</g>
</svg>
