<?xml version="1.0" encoding="utf-8"?>
<!-- Generator: Adobe Illustrator 27.6.1, SVG Export Plug-In . SVG Version: 6.00 Build 0)  -->
<svg version="1.1" id="Warstwa_1" xmlns="http://www.w3.org/2000/svg" xmlns:xlink="http://www.w3.org/1999/xlink" x="0px" y="0px"
	 viewBox="0 0 320 320" style="enable-background:new 0 0 320 320;" xml:space="preserve">
<style type="text/css">
	.st0{fill:#FFFFFF;}
	.st1{fill:#2F3A4C;}
	.st2{fill:#0ABF50;}
</style>
<g>
	<g>
		<path class="st0" d="M290.1,288.6l11.3-14.1V46.1l-22.6-28.2H53.2L30.7,29.1C30.7,29.1,183,77.1,290.1,288.6z"/>
		<g>
			<path class="st1" d="M259.9,10.6H60.1c-27.3,0-49.6,22.2-49.6,49.6v199.7c0,27.3,22.2,49.6,49.6,49.6h199.7
				c27.3,0,49.6-22.2,49.6-49.6V60.1C309.4,32.8,287.2,10.6,259.9,10.6z M295.3,259.9c0,19.6-15.9,35.5-35.5,35.5H60.1
				c-19.6,0-35.5-15.9-35.5-35.5V60.1c0-19.6,15.9-35.5,35.5-35.5h199.7c19.6,0,35.5,15.9,35.5,35.5V259.9z"/>
		</g>
	</g>
</g>
<g>
	<path class="st2" d="M125,233.4c-2,0-3.9-0.8-5.3-2.2l-59.4-59.4c-2.9-2.9-2.9-7.7,0-10.6c2.9-2.9,7.7-2.9,10.6,0l54.1,54.1
		L251.4,88.9c2.9-2.9,7.7-2.9,10.6,0c2.9,2.9,2.9,7.7,0,10.6L130.3,231.2C128.9,232.6,127,233.4,125,233.4z"/>
</g>
</svg>
