<?xml version="1.0" encoding="utf-8"?>
<!-- Generator: Adobe Illustrator 27.6.1, SVG Export Plug-In . SVG Version: 6.00 Build 0)  -->
<svg version="1.1" id="Warstwa_1" xmlns="http://www.w3.org/2000/svg" xmlns:xlink="http://www.w3.org/1999/xlink" x="0px" y="0px"
	 viewBox="0 0 256 256" style="enable-background:new 0 0 256 256;" xml:space="preserve">
<style type="text/css">
	.st0{fill:#AAAAAA;}
	.st1{fill:#C6C6C6;}
	.st2{fill:#FFFFFF;}
</style>
<g>
	<path class="st0" d="M140.7,42.3l19.3,39c2.1,4.2,6.1,7.1,10.7,7.8l43.1,6.2c11.7,1.7,16.3,16,7.9,24.3L190.5,150
		c-3.4,3.3-4.9,8-4.1,12.6l7.4,42.9c2,11.6-10.2,20.5-20.6,15l-38.5-20.3c-4.1-2.2-9.1-2.2-13.2,0l-38.5,20.3
		c-10.4,5.5-22.6-3.4-20.6-15l7.4-42.9c0.8-4.6-0.7-9.3-4.1-12.6l-31.2-30.4c-8.4-8.2-3.8-22.6,7.9-24.3l43.1-6.2
		c4.6-0.7,8.6-3.6,10.7-7.8l19.3-39C120.4,31.8,135.5,31.8,140.7,42.3z"/>
	<path class="st1" d="M167.2,153.1l5.8,34c0.7,4.1-2.1,8-6.2,8.7c-1.6,0.3-3.3,0-4.8-0.8l-30.5-16c-2.2-1.2-4.8-1.2-7,0l-13.8,7.3
		l-16.7,8.8c-3.7,1.9-8.3,0.5-10.2-3.2c-0.8-1.5-1-3.2-0.8-4.8l5.8-34c0.4-2.5-0.4-5-2.2-6.7l-24.7-24.1c-3-2.9-3-7.7-0.1-10.7
		c1.2-1.2,2.7-2,4.3-2.2l34.1-5c2.5-0.4,4.6-1.9,5.7-4.1l15.3-30.9c1.8-3.7,6.4-5.3,10.1-3.4c1.5,0.7,2.7,1.9,3.4,3.4l12.3,25
		l2.9,5.9c1.1,2.2,3.2,3.8,5.7,4.1l34.1,5c4.1,0.6,7,4.4,6.4,8.6c-0.2,1.6-1,3.2-2.2,4.3l-24.7,24.1
		C167.6,148.2,166.8,150.7,167.2,153.1z"/>
	<path class="st2" d="M102,172.5l5-28.9l-21-20.5l29.1-4.2l13-26.3l13,26.3L170,123l-21,20.5l5,28.9l-26-13.7L102,172.5z
		 M90.6,124.6l18.7,18.2l-4.4,25.7l23.1-12.2l23.1,12.2l-4.4-25.7l18.7-18.2l-25.8-3.8L128,97.4l-11.6,23.4L90.6,124.6z"/>
</g>
</svg>
