<?xml version="1.0" encoding="utf-8"?>
<!-- Generator: Adobe Illustrator 27.0.0, SVG Export Plug-In . SVG Version: 6.00 Build 0)  -->
<svg version="1.1" id="Warstwa_1" xmlns="http://www.w3.org/2000/svg" xmlns:xlink="http://www.w3.org/1999/xlink" x="0px" y="0px"
	 viewBox="0 0 64 128" style="enable-background:new 0 0 64 128;" xml:space="preserve">
<style type="text/css">
	.st0{fill:#FFFFFF;}
	.st1{fill:#0ABF50;}
</style>
<path class="st0" d="M0.1,32C0.1,14.4,14.4,0.1,32,0.1c17.6,0,31.9,14.3,31.9,31.9c0,17.6-14.3,31.9-31.9,31.9
	C14.4,63.9,0.1,49.6,0.1,32z M59.7,32C59.7,16.7,47.3,4.3,32,4.3C16.7,4.3,4.3,16.7,4.3,32c0,15.3,12.4,27.7,27.7,27.7
	C47.3,59.7,59.7,47.3,59.7,32z"/>
<path class="st0" d="M49.5,19.9c-0.7-1.2-2.1-2.1-3.5-2.1c-0.1,0-0.2,0-0.3,0c-0.1,0-0.3,0-0.4,0c-1,0.2-1.9,0.8-2.5,1.6l-15.3,18
	l-6.1-6.6c-0.7-0.8-1.8-1.2-3-1.2c-1,0-2,0.3-2.7,1c-0.7,0.7-1.2,1.7-1.2,2.8c0,1.1,0.3,2.1,1,2.8l9.3,10.1c0.7,0.8,1.7,1.2,2.9,1.2
	c1.3,0,2.5-0.6,3.2-1.5l18.1-21.7C50.1,23,50.2,21.2,49.5,19.9z"/>
<path class="st1" d="M0.3,96c0-17.6,14.3-31.9,31.9-31.9c17.6,0,31.9,14.3,31.9,31.9c0,17.6-14.3,31.9-31.9,31.9
	C14.6,127.9,0.3,113.6,0.3,96z M59.9,96c0-15.3-12.4-27.7-27.7-27.7C16.9,68.3,4.5,80.7,4.5,96c0,15.3,12.4,27.7,27.7,27.7
	C47.5,123.7,59.9,111.3,59.9,96z"/>
<path class="st1" d="M49.7,83.9c-0.7-1.2-2.1-2.1-3.5-2.1c-0.1,0-0.2,0-0.3,0c-0.1,0-0.3,0-0.4,0c-1,0.2-1.9,0.8-2.5,1.6l-15.3,18
	l-6.1-6.6c-0.7-0.8-1.8-1.2-3-1.2c-1,0-2,0.3-2.7,1c-0.7,0.7-1.2,1.7-1.2,2.8c0,1.1,0.3,2.1,1,2.8l9.3,10.1c0.7,0.8,1.7,1.2,2.9,1.2
	c1.3,0,2.5-0.6,3.2-1.5l18.1-21.7C50.3,87,50.4,85.2,49.7,83.9z"/>
</svg>
