<?xml version="1.0" encoding="utf-8"?>
<!-- Generator: Adobe Illustrator 27.0.1, SVG Export Plug-In . SVG Version: 6.00 Build 0)  -->
<svg version="1.1" id="Layer_1" xmlns="http://www.w3.org/2000/svg" xmlns:xlink="http://www.w3.org/1999/xlink" x="0px" y="0px"
	 viewBox="0 0 200 52.9" style="enable-background:new 0 0 200 52.9;" xml:space="preserve">
<style type="text/css">
	.st0{fill:#005EF4;}
</style>
<g>
	<g>
		<g>
			<g>
				<g>
					<path class="st0" d="M110.4,39.9c-0.2,0.2-0.4,0.3-0.7,0.3c-0.2,0-0.5,0.1-0.7,0.1h-3.7c-0.3,0-0.5-0.1-0.8-0.2
						c-0.2-0.1-0.4-0.2-0.5-0.4c-0.1-0.2-0.3-0.4-0.4-0.6c-0.1-0.2-0.2-0.5-0.2-0.7l-0.8-3.1c-0.2,0.5-0.6,1.1-1.1,1.7
						c-0.5,0.6-1,1.2-1.8,1.8c-0.7,0.6-1.6,1-2.5,1.4c-1,0.4-2.1,0.6-3.4,0.6c-1.8,0-3.5-0.4-5-1.1c-1.5-0.7-2.8-1.7-3.8-2.9
						c-1.1-1.2-1.9-2.7-2.5-4.3c-0.6-1.6-0.9-3.4-0.9-5.3V11.4c0-0.6,0.1-1.1,0.4-1.4c0.3-0.3,0.7-0.5,1.3-0.5h5.6
						c0.7,0,1.2,0.1,1.4,0.4c0.3,0.2,0.4,0.7,0.4,1.4v15.8c0,0.7,0.2,1.4,0.5,2c0.3,0.6,0.7,1.2,1.2,1.7c0.5,0.5,1.1,0.9,1.8,1.1
						c0.7,0.3,1.3,0.4,2,0.4c0.6,0,1.2-0.1,1.8-0.4c0.6-0.3,1.2-0.6,1.7-1.1c0.5-0.5,1-1,1.3-1.6c0.3-0.6,0.5-1.3,0.5-2V11.3
						c0-0.3,0.1-0.6,0.2-0.8c0.1-0.3,0.3-0.5,0.5-0.6c0.2-0.1,0.4-0.2,0.6-0.3c0.2,0,0.4-0.1,0.6-0.1h5.5c0.7,0,1.2,0.2,1.5,0.5
						c0.3,0.3,0.5,0.8,0.5,1.4v27.2c0,0.3-0.1,0.6-0.2,0.8c-0.1,0.3-0.3,0.5-0.6,0.6L110.4,39.9z"/>
				</g>
			</g>
			<g>
				<g>
					<path class="st0" d="M117.7,4.7c0-0.5,0.2-0.9,0.5-1.1c0.3-0.3,0.8-0.5,1.4-0.7l5.5-1.9c0.1,0,0.2,0,0.2,0c0.1,0,0.1,0,0.2,0
						c0.6,0,1,0.2,1.2,0.5c0.2,0.3,0.3,0.8,0.3,1.4l0,7.6h4.1c0.5,0,0.9,0.2,1.3,0.5c0.3,0.3,0.5,0.8,0.5,1.4V17
						c0,0.7-0.2,1.2-0.5,1.5c-0.3,0.3-0.7,0.5-1.3,0.5H127l0,19.5c0,0.6-0.2,1.1-0.5,1.4c-0.4,0.3-0.8,0.5-1.5,0.5h-5.5
						c-1.2,0-1.9-0.6-1.9-1.9l0-19.5h-1.8c-1.2,0-1.9-0.7-1.9-2v-4.7c0-1.2,0.6-1.8,1.9-1.8h1.8L117.7,4.7z"/>
				</g>
			</g>
			<g>
				<g>
					<path class="st0" d="M137.4,4.7c0-0.5,0.2-0.9,0.5-1.1c0.3-0.3,0.8-0.5,1.4-0.7l5.5-1.9c0.1,0,0.2,0,0.2,0c0.1,0,0.1,0,0.2,0
						c0.6,0,1,0.2,1.2,0.5c0.2,0.3,0.3,0.8,0.3,1.4l0,7.6h4.1c0.5,0,0.9,0.2,1.3,0.5c0.3,0.3,0.5,0.8,0.5,1.4V17
						c0,0.7-0.2,1.2-0.5,1.5c-0.3,0.3-0.7,0.5-1.3,0.5h-4.1l0,19.5c0,0.6-0.2,1.1-0.5,1.4c-0.4,0.3-0.8,0.5-1.5,0.5h-5.5
						c-1.2,0-1.9-0.6-1.9-1.9l0-19.5h-1.8c-1.2,0-1.9-0.7-1.9-2v-4.7c0-1.2,0.6-1.8,1.9-1.8h1.8L137.4,4.7z"/>
				</g>
			</g>
			<g>
				<g>
					<path class="st0" d="M155,2.2c0-0.5,0.1-1,0.4-1.3c0.3-0.4,0.7-0.5,1.3-0.5h5.9c0.2,0,0.3,0,0.5,0.1c0.2,0.1,0.3,0.2,0.5,0.4
						c0.2,0.2,0.3,0.4,0.4,0.6c0.1,0.2,0.2,0.5,0.2,0.8v36.3c0,0.6-0.2,1.1-0.5,1.4c-0.3,0.3-0.8,0.5-1.3,0.5h-5.6
						c-0.6,0-1.1-0.2-1.3-0.5c-0.3-0.3-0.4-0.8-0.4-1.4V2.2z"/>
				</g>
			</g>
			<g>
				<g>
					<path class="st0" d="M166.2,11.9c-0.3-0.6-0.3-1.2,0-1.7c0.3-0.5,0.8-0.7,1.7-0.7h6c0.4,0,0.7,0.1,1,0.4
						c0.3,0.3,0.5,0.6,0.6,0.9l6.9,19.5l6.7-19.5c0.2-0.5,0.4-0.9,0.7-1c0.3-0.2,0.7-0.3,1.1-0.3h6.2c0.5,0,0.8,0.1,1.1,0.2
						c0.3,0.1,0.4,0.3,0.5,0.5c0.1,0.2,0.1,0.4,0.1,0.7c0,0.3-0.1,0.5-0.2,0.7c-0.6,1.5-1.3,3.2-2,5c-0.7,1.8-1.5,3.7-2.3,5.6
						c-0.8,2-1.6,3.9-2.4,5.9c-0.8,2-1.6,4-2.4,5.9c-0.8,1.9-1.5,3.8-2.2,5.6c-0.7,1.8-1.4,3.4-2,4.9c-0.6,1.5-1.1,2.8-1.5,3.9
						c-0.4,1.1-0.8,2-1,2.6l0.1-0.1c-0.1,0.4-0.3,0.8-0.6,1.1c-0.3,0.3-0.6,0.4-1.1,0.4h-5.6c-0.7,0-1.2-0.1-1.5-0.4
						c-0.3-0.3-0.4-0.7-0.4-1.3c0-0.2,0-0.4,0.1-0.5c0.1-0.1,0.1-0.2,0.1-0.2l3.8-9.9L166.2,11.9z"/>
				</g>
			</g>
			<g>
				<g>
					<g>
						<path class="st0" d="M80.3,33.6c-0.4-1-0.6-2.1-0.8-3.1c-0.7,0.7-1.4,1.1-2.3,1.4c-0.9,0.3-1.8,0.5-2.7,0.4
							c-0.9-0.1-1.8-0.3-2.7-0.7c-0.9-0.4-1.7-1-2.5-1.8c-0.7-0.7-1.3-1.6-1.7-2.5c-0.4-0.9-0.7-1.8-0.7-2.8c-0.1-0.9,0-1.8,0.4-2.7
							c0.3-0.9,0.8-1.7,1.6-2.4c0.7-0.7,1.4-1.2,2.2-1.5c0.8-0.4,1.6-0.6,2.4-0.8c0.3-0.1,0.6-0.1,0.8-0.2c0.2-0.1,0.4-0.2,0.5-0.3
							c0.5-0.5,0.6-1.1,0.3-2l-1.1-4.1c-0.1-0.4-0.2-0.6-0.4-0.8c-0.3-0.3-0.6-0.5-1-0.5c-0.3-0.1-0.7,0-1.1,0.1l0.1,0
							c-1.6,0.3-3.1,0.8-4.5,1.5c-1.4,0.7-2.7,1.7-4,3c-1,1-1.9,2.2-2.6,3.4c-0.7,1.2-1.2,2.5-1.6,3.8c-0.3,1.3-0.5,2.6-0.5,4
							c0,1.4,0.2,2.7,0.5,4c0.3,1.3,0.9,2.6,1.6,3.8c0.7,1.2,1.6,2.4,2.6,3.4c1.1,1.1,2.2,1.9,3.4,2.6c1.2,0.7,2.5,1.2,3.8,1.6
							c1.3,0.4,2.7,0.5,4,0.5c1.4,0,2.7-0.2,4-0.5c1.3-0.3,2.6-0.9,3.8-1.5c0.3-0.1,0.5-0.3,0.8-0.5C81.8,37,80.9,35.4,80.3,33.6z"
							/>
					</g>
				</g>
			</g>
		</g>
	</g>
	<g>
		<path class="st0" d="M30,30.6c-0.7,0.7-1.4,1.1-2.3,1.4c-0.9,0.3-1.8,0.5-2.7,0.4c-0.9-0.1-1.8-0.3-2.7-0.7
			c-0.9-0.4-1.7-1-2.5-1.8c-0.7-0.7-1.3-1.5-1.7-2.4c-0.4-0.9-0.7-1.8-0.7-2.7c-0.1-0.9,0-1.8,0.4-2.7c0.3-0.9,0.8-1.7,1.5-2.4
			c0.7-0.7,1.4-1.2,2.2-1.5c0.8-0.4,1.6-0.6,2.4-0.8c0.3-0.1,0.6-0.1,0.8-0.2c0.2-0.1,0.4-0.2,0.5-0.3c0.5-0.5,0.6-1.1,0.3-2
			l-1.1-4.1c-0.1-0.4-0.2-0.6-0.4-0.8c-0.3-0.3-0.6-0.5-1-0.5c-0.3-0.1-0.7,0-1.1,0.1l0.1,0c-1.6,0.3-3.1,0.8-4.4,1.5
			c-1.4,0.7-2.7,1.7-3.9,3c-1,1-1.9,2.1-2.6,3.4c-0.7,1.2-1.2,2.5-1.5,3.8c-0.3,1.3-0.5,2.6-0.5,4c0,1.4,0.2,2.7,0.5,4
			c0.3,1.3,0.9,2.6,1.6,3.8c0.7,1.2,1.6,2.4,2.6,3.4c1,1,2.2,1.9,3.4,2.6c1.2,0.7,2.5,1.2,3.8,1.6c1.3,0.4,2.6,0.5,4,0.5
			c1.4,0,2.7-0.2,4-0.5c1.3-0.3,2.6-0.8,3.8-1.5c0.3-0.1,0.5-0.3,0.7-0.5c-1.1-1.4-2-2.9-2.6-4.7C30.4,32.8,30.2,31.7,30,30.6z"/>
		<path class="st0" d="M24.8,1.4C11.8,1.4,1.2,12,1.2,25s10.6,23.6,23.6,23.6c13,0,23.6-10.6,23.6-23.6S37.8,1.4,24.8,1.4z
			 M24.8,45.8C13.3,45.8,4,36.5,4,25C4,13.5,13.3,4.2,24.8,4.2c11.5,0,20.8,9.3,20.8,20.8C45.6,36.5,36.3,45.8,24.8,45.8z"/>
	</g>
</g>
</svg>
