<?xml version="1.0" encoding="utf-8"?>
<!-- Generator: Adobe Illustrator 27.0.0, SVG Export Plug-In . SVG Version: 6.00 Build 0)  -->
<svg version="1.1" id="Warstwa_1" xmlns="http://www.w3.org/2000/svg" xmlns:xlink="http://www.w3.org/1999/xlink" x="0px" y="0px"
	 viewBox="0 0 320 320" style="enable-background:new 0 0 320 320;" xml:space="preserve">
<style type="text/css">
	.st0{fill:#FFFFFF;}
	.st1{fill:#2F3A4C;}
	.st2{fill:#0ABF50;}
</style>
<g>
	<g>
		<path class="st0" d="M28.9,32L17.6,46.1v228.4l22.6,28.2h225.6l22.6-11.3C288.3,291.4,136,243.5,28.9,32z"/>
		<g>
			<g>
				<path class="st1" d="M259.9,309.4H60.1c-27.3,0-49.6-22.2-49.6-49.6V60.1c0-27.3,22.2-49.6,49.6-49.6h199.7
					c27.3,0,49.6,22.2,49.6,49.6v199.7C309.4,287.2,287.2,309.4,259.9,309.4z M60.1,24.7c-19.6,0-35.5,15.9-35.5,35.5v199.7
					c0,19.6,15.9,35.5,35.5,35.5h199.7c19.6,0,35.5-15.9,35.5-35.5V60.1c0-19.6-15.9-35.5-35.5-35.5H60.1z"/>
			</g>
			<g>
				<g>
					<path class="st1" d="M194.4,165.7v-0.1c0-1.8-1.4-3.2-3.2-3.2h-62.4c-1.8,0-3.2,1.4-3.2,3.2v0.1c0,1.8,1.4,3.2,3.2,3.2h62.4
						C193,168.9,194.4,167.5,194.4,165.7z"/>
					<path class="st1" d="M191.2,170.3h-62.4c-2.5,0-4.6-2.1-4.6-4.6c0-2.7,2.1-4.7,4.6-4.7h62.4c2.5,0,4.6,2.1,4.6,4.6v0.1
						C195.8,168.2,193.7,170.3,191.2,170.3z M128.8,163.8c-1,0-1.8,0.8-1.8,1.8c0,1.1,0.8,1.9,1.8,1.9h62.4c1,0,1.8-0.8,1.8-1.8
						v-0.1c0-1-0.8-1.8-1.8-1.8H128.8z"/>
				</g>
				<g>
					<path class="st1" d="M170.4,141.2h47.1c0.1,0,0.2,0,0.3,0c13.4,0.8,19.4,12.8,19.4,24.4c0,11.7-6.1,23.8-19.7,24.4l0,0
						c-0.3,0-0.6,0-1,0h-3.7h-13.1h-29.4c-1.8,0-3.2,1.5-3.2,3.2c0,1.8,1.5,3.2,3.2,3.2c24,0,45.6,0,47.3,0c0.1,0,0.2,0,0.2,0
						c34.3-1.8,34.3-60.2-0.1-61.8h-47.4c-1.8,0-3.2,1.5-3.2,3.2C167.1,139.8,168.6,141.2,170.4,141.2z"/>
					<path class="st1" d="M217.7,198h-47.3c-2.6,0-4.7-2.1-4.7-4.7s2.1-4.7,4.7-4.7h46.1c0.3,0,0.5,0,0.8,0l0.1,0
						c12.7-0.6,18.3-12,18.3-23c0-10.9-5.6-22.2-18-23l-47.3,0c-2.6,0-4.7-2.1-4.7-4.7s2.1-4.7,4.7-4.7h47.4
						c18.7,0.9,27.2,17.3,27.2,32.2c0,14.9-8.4,31.4-27,32.4L217.7,198z M170.4,191.5c-1,0-1.8,0.8-1.8,1.8c0,1,0.8,1.8,1.8,1.8
						h47.3c16.9-0.9,24.6-16,24.5-29.6c0-13.6-7.7-28.6-24.5-29.4l-47.4,0c-1,0-1.8,0.8-1.8,1.8c0,1,0.8,1.8,1.8,1.8l47.5,0
						c14.3,0.9,20.7,13.6,20.7,25.8c0,11.9-6,24.2-19.5,25.7l0,0.2l-1.7-0.1c-0.3,0-0.6,0-0.9,0H170.4z"/>
				</g>
				<g>
					<path class="st1" d="M102.3,196.5h47.3c1.8,0,3.2-1.5,3.2-3.2c0-1.8-1.5-3.2-3.2-3.2h-47.3c-10.7,0-19.5-11-19.5-24.4
						c0-6.7,2.2-13,6.1-17.7c3.6-4.3,8.4-6.7,13.4-6.7h47.3c1.8,0,3.2-1.5,3.2-3.2c0-1.8-1.5-3.2-3.2-3.2h-47.3
						c-14.3,0-26,13.8-26,30.9S88,196.5,102.3,196.5z"/>
					<path class="st1" d="M149.6,198h-47.3c-15.1,0-27.4-14.5-27.4-32.3c0-17.8,12.3-32.3,27.4-32.3h47.3c2.6,0,4.7,2.1,4.7,4.7
						s-2.1,4.7-4.7,4.7h-47.3c-4.6,0-8.9,2.2-12.3,6.2c-3.7,4.4-5.8,10.4-5.8,16.8c0,12.7,8.1,23,18.1,23h47.3
						c2.6,0,4.7,2.1,4.7,4.7S152.2,198,149.6,198z M102.3,136.1c-13.5,0-24.5,13.2-24.5,29.5s11,29.5,24.5,29.5h47.3
						c1,0,1.8-0.8,1.8-1.8c0-1-0.8-1.8-1.8-1.8h-47.3c-11.5,0-20.9-11.6-20.9-25.8c0-7.1,2.3-13.7,6.4-18.6
						c3.9-4.7,9.1-7.2,14.5-7.2h47.3c1,0,1.8-0.8,1.8-1.8c0-1-0.8-1.8-1.8-1.8H102.3z"/>
				</g>
				<g>
					<path class="st1" d="M125.6,239v0.1c0,1.8,1.4,3.2,3.2,3.2h62.4c1.8,0,3.2-1.4,3.2-3.2V239c0-1.8-1.4-3.2-3.2-3.2h-62.4
						C127,235.9,125.6,237.3,125.6,239z"/>
					<path class="st1" d="M191.2,243.8h-62.4c-2.5,0-4.6-2.1-4.6-4.6V239c0-2.5,2.1-4.6,4.6-4.6h62.4c2.5,0,4.6,2.1,4.6,4.6
						C195.8,241.7,193.7,243.8,191.2,243.8z M128.8,237.3c-1,0-1.8,0.8-1.8,1.8v0.1c0,1,0.8,1.8,1.8,1.8h62.4c1,0,1.8-0.8,1.8-1.8
						c0-1.1-0.8-1.9-1.8-1.9H128.8z"/>
				</g>
				<g>
					<path class="st1" d="M217.8,208.2h-47.4c-1.8,0-3.2,1.5-3.2,3.2c0,1.8,1.5,3.2,3.2,3.2h47.1c0.1,0,0.2,0,0.3,0
						c13.4,0.8,19.4,12.8,19.4,24.4c0,11.7-6.1,23.8-19.7,24.4l0,0c-0.3,0-0.6,0-1,0h-3.7h-13.1h-29.4c-1.8,0-3.2,1.5-3.2,3.2
						c0,1.8,1.5,3.2,3.2,3.2c24,0,45.6,0,47.3,0c0.1,0,0.2,0,0.2,0C252.3,268.2,252.2,209.8,217.8,208.2z"/>
					<path class="st1" d="M217.7,271.4h-47.3c-2.6,0-4.7-2.1-4.7-4.7s2.1-4.7,4.7-4.7h46.1c0.3,0,0.5,0,0.8,0l0.1,0
						c12.7-0.6,18.3-12,18.3-23c0-10.9-5.6-22.2-18-23l-47.3,0c-2.6,0-4.7-2.1-4.7-4.7c0-2.6,2.1-4.7,4.7-4.7l47.5,0
						c18.6,0.9,27.1,17.3,27.2,32.2c0,14.9-8.4,31.4-27,32.4L217.7,271.4z M170.4,264.9c-1,0-1.8,0.8-1.8,1.8c0,1,0.8,1.8,1.8,1.8
						h47.3c17-0.9,24.6-16,24.5-29.6c0-13.6-7.7-28.6-24.5-29.4h-47.4c-1,0-1.8,0.8-1.8,1.8c0,1,0.8,1.8,1.8,1.8l47.5,0
						c14.3,0.9,20.7,13.6,20.7,25.8c0,11.9-6,24.2-19.5,25.7l0,0.2l-1.7-0.1c-0.3,0-0.6,0-0.9,0H170.4z"/>
				</g>
				<g>
					<path class="st1" d="M149.6,263.5h-47.3c-10.7,0-19.5-11-19.5-24.4c0-6.7,2.2-13,6.1-17.7c3.6-4.3,8.4-6.7,13.4-6.7h47.3
						c1.8,0,3.2-1.5,3.2-3.2c0-1.8-1.5-3.2-3.2-3.2h-47.3c-14.3,0-26,13.8-26,30.9S88,270,102.3,270h47.3c1.8,0,3.2-1.5,3.2-3.2
						C152.9,265,151.4,263.5,149.6,263.5z"/>
					<path class="st1" d="M149.6,271.4h-47.3c-15.1,0-27.4-14.5-27.4-32.3s12.3-32.3,27.4-32.3h47.3c2.6,0,4.7,2.1,4.7,4.7
						c0,2.6-2.1,4.7-4.7,4.7h-47.3c-4.6,0-8.9,2.2-12.3,6.2c-3.7,4.4-5.8,10.4-5.8,16.8c0,12.7,8.1,23,18.1,23h47.3
						c2.6,0,4.7,2.1,4.7,4.7S152.2,271.4,149.6,271.4z M102.3,209.6c-13.5,0-24.5,13.2-24.5,29.5s11,29.5,24.5,29.5h47.3
						c1,0,1.8-0.8,1.8-1.8c0-1-0.8-1.8-1.8-1.8h-47.3c-11.5,0-20.9-11.6-20.9-25.8c0-7.1,2.3-13.7,6.4-18.6
						c3.9-4.7,9.1-7.2,14.5-7.2h47.3c1,0,1.8-0.8,1.8-1.8c0-1-0.8-1.8-1.8-1.8H102.3z"/>
				</g>
			</g>
			<g>
				<g>
					<path class="st2" d="M159,46.3c-18.4,0-33.4,15-33.4,33.4s15,33.4,33.4,33.4s33.4-15,33.4-33.4S177.4,46.3,159,46.3z
						 M159,100.9c-11.7,0-21.3-9.5-21.3-21.3c0-11.7,9.5-21.3,21.3-21.3c11.7,0,21.3,9.5,21.3,21.3
						C180.3,91.4,170.7,100.9,159,100.9z"/>
				</g>
			</g>
		</g>
	</g>
</g>
</svg>
