<?xml version="1.0" encoding="utf-8"?>
<!-- Generator: Adobe Illustrator 27.0.0, SVG Export Plug-In . SVG Version: 6.00 Build 0)  -->
<svg version="1.1" id="Warstwa_1" xmlns="http://www.w3.org/2000/svg" xmlns:xlink="http://www.w3.org/1999/xlink" x="0px" y="0px"
	 viewBox="0 0 320 320" style="enable-background:new 0 0 320 320;" xml:space="preserve">
<style type="text/css">
	.st0{fill:#FFFFFF;}
	.st1{fill:#2F3A4C;}
	.st2{fill:#0ABF50;}
</style>
<g>
	<g>
		<path class="st0" d="M30.4,288.5l14.1,11.3h228.4l28.2-22.6V51.6l-11.3-22.6C289.8,29.1,241.9,181.3,30.4,288.5z"/>
		<g>
			<g>
				<path class="st1" d="M259.9,10.6H60.1c-27.3,0-49.6,22.2-49.6,49.6v199.7c0,27.3,22.2,49.6,49.6,49.6h199.7
					c27.3,0,49.6-22.2,49.6-49.6V60.1C309.4,32.8,287.2,10.6,259.9,10.6z M295.3,259.9c0,19.6-15.9,35.5-35.5,35.5H60.1
					c-19.6,0-35.5-15.9-35.5-35.5V60.1c0-19.6,15.9-35.5,35.5-35.5h199.7c19.6,0,35.5,15.9,35.5,35.5V259.9z"/>
				<path class="st1" d="M73.9,179.6c-3.9,0-7,3.2-7,7v70.5c0,3.9,3.2,7,7,7c3.9,0,7-3.2,7-7v-70.5
					C80.9,182.7,77.8,179.6,73.9,179.6z"/>
				<path class="st1" d="M117.6,117.5c-3.9,0-7,3.2-7,7v132.5c0,3.9,3.2,7,7,7c3.9,0,7-3.2,7-7V124.6
					C124.6,120.7,121.5,117.5,117.6,117.5z"/>
				<g>
					<path class="st2" d="M161.3,55.5c-3.9,0-7,3.2-7,7v194.6c0,3.9,3.2,7,7,7c3.9,0,7-3.2,7-7V62.6
						C168.3,58.7,165.2,55.5,161.3,55.5z"/>
				</g>
				<path class="st1" d="M248.7,89.3c-3.9,0-7,3.2-7,7v160.7c0,3.9,3.2,7,7,7c3.9,0,7-3.2,7-7V96.4
					C255.7,92.5,252.6,89.3,248.7,89.3z"/>
				<path class="st1" d="M205,151.4c-3.9,0-7,3.2-7,7v98.7c0,3.9,3.2,7,7,7c3.9,0,7-3.2,7-7v-98.7C212,154.5,208.9,151.4,205,151.4z
					"/>
			</g>
		</g>
	</g>
</g>
</svg>
