<?xml version="1.0" encoding="utf-8"?>
<!-- Generator: Adobe Illustrator 27.6.1, SVG Export Plug-In . SVG Version: 6.00 Build 0)  -->
<svg version="1.1" id="Warstwa_1" xmlns="http://www.w3.org/2000/svg" xmlns:xlink="http://www.w3.org/1999/xlink" x="0px" y="0px"
	 viewBox="0 0 256 256" style="enable-background:new 0 0 256 256;" xml:space="preserve">
<style type="text/css">
	.st0{fill:#FEB623;}
</style>
<g>
	<path class="st0" d="M71.9,227.9c-2.8,0-5.6-0.9-8-2.6c-4.2-3.1-6.3-8.2-5.4-13.3l9.1-52.9c0.3-1.5-0.2-3-1.3-4l-38.4-37.4
		c-3.7-3.6-5.1-9-3.4-14c1.6-5,5.8-8.5,11-9.3l53.1-7.7c1.5-0.2,2.8-1.1,3.4-2.5l23.7-48.1c2.3-4.7,7-7.6,12.2-7.6
		c5.2,0,9.9,2.9,12.2,7.6l0,0l23.7,48.1c0.7,1.3,1.9,2.3,3.4,2.5l53.1,7.7c5.2,0.8,9.4,4.3,11,9.3c1.6,5,0.3,10.3-3.4,14l-38.4,37.4
		c-1.1,1-1.6,2.5-1.3,4l9.1,52.9c0.9,5.1-1.2,10.2-5.4,13.3c-4.2,3.1-9.7,3.5-14.3,1l-47.5-25c-1.3-0.7-2.9-0.7-4.2,0l-47.5,25
		C76.3,227.3,74.1,227.9,71.9,227.9z M127.9,191.7c2.2,0,4.4,0.5,6.3,1.6l47.5,25c1.6,0.8,3.3,0.7,4.8-0.3c1.4-1,2.1-2.7,1.8-4.4
		l-9.1-52.9c-0.8-4.4,0.7-8.9,3.9-12.1l38.4-37.4c1.3-1.2,1.7-3,1.1-4.7c-0.5-1.7-1.9-2.8-3.7-3.1l-53.1-7.7
		c-4.4-0.6-8.3-3.4-10.3-7.4L132,40.1c-0.8-1.6-2.3-2.5-4.1-2.5c-1.8,0-3.3,0.9-4.1,2.5l-23.7,48.1c-2,4-5.8,6.8-10.3,7.4l-53.1,7.7
		c-1.7,0.3-3.1,1.4-3.7,3.1c-0.5,1.7-0.1,3.4,1.1,4.7l38.4,37.4c3.2,3.1,4.7,7.6,3.9,12.1l-9.1,52.9c-0.3,1.7,0.4,3.4,1.8,4.4
		c1.4,1,3.2,1.2,4.8,0.3l47.5-25C123.5,192.3,125.7,191.7,127.9,191.7z"/>
</g>
</svg>
